<svg id="visual" viewBox="0 0 900 600" width="900" height="600" xmlns="http://www.w3.org/2000/svg" xmlns:xlink="http://www.w3.org/1999/xlink" version="1.1"><rect x="0" y="0" width="900" height="600" fill="#001220"></rect><defs><linearGradient id="grad1_0" x1="33.3%" y1="100%" x2="100%" y2="0%"><stop offset="20%" stop-color="#663366" stop-opacity="1"></stop><stop offset="80%" stop-color="#663366" stop-opacity="1"></stop></linearGradient></defs><defs><linearGradient id="grad1_1" x1="33.3%" y1="100%" x2="100%" y2="0%"><stop offset="20%" stop-color="#663366" stop-opacity="1"></stop><stop offset="80%" stop-color="#523160" stop-opacity="1"></stop></linearGradient></defs><defs><linearGradient id="grad1_2" x1="33.3%" y1="100%" x2="100%" y2="0%"><stop offset="20%" stop-color="#3f2d59" stop-opacity="1"></stop><stop offset="80%" stop-color="#523160" stop-opacity="1"></stop></linearGradient></defs><defs><linearGradient id="grad1_3" x1="33.3%" y1="100%" x2="100%" y2="0%"><stop offset="20%" stop-color="#3f2d59" stop-opacity="1"></stop><stop offset="80%" stop-color="#2e294f" stop-opacity="1"></stop></linearGradient></defs><defs><linearGradient id="grad1_4" x1="33.3%" y1="100%" x2="100%" y2="0%"><stop offset="20%" stop-color="#1e2545" stop-opacity="1"></stop><stop offset="80%" stop-color="#2e294f" stop-opacity="1"></stop></linearGradient></defs><defs><linearGradient id="grad1_5" x1="33.3%" y1="100%" x2="100%" y2="0%"><stop offset="20%" stop-color="#1e2545" stop-opacity="1"></stop><stop offset="80%" stop-color="#111f39" stop-opacity="1"></stop></linearGradient></defs><defs><linearGradient id="grad1_6" x1="33.3%" y1="100%" x2="100%" y2="0%"><stop offset="20%" stop-color="#07192c" stop-opacity="1"></stop><stop offset="80%" stop-color="#111f39" stop-opacity="1"></stop></linearGradient></defs><defs><linearGradient id="grad1_7" x1="33.3%" y1="100%" x2="100%" y2="0%"><stop offset="20%" stop-color="#07192c" stop-opacity="1"></stop><stop offset="80%" stop-color="#001220" stop-opacity="1"></stop></linearGradient></defs><defs><linearGradient id="grad2_0" x1="0%" y1="100%" x2="66.7%" y2="0%"><stop offset="20%" stop-color="#663366" stop-opacity="1"></stop><stop offset="80%" stop-color="#663366" stop-opacity="1"></stop></linearGradient></defs><defs><linearGradient id="grad2_1" x1="0%" y1="100%" x2="66.7%" y2="0%"><stop offset="20%" stop-color="#523160" stop-opacity="1"></stop><stop offset="80%" stop-color="#663366" stop-opacity="1"></stop></linearGradient></defs><defs><linearGradient id="grad2_2" x1="0%" y1="100%" x2="66.7%" y2="0%"><stop offset="20%" stop-color="#523160" stop-opacity="1"></stop><stop offset="80%" stop-color="#3f2d59" stop-opacity="1"></stop></linearGradient></defs><defs><linearGradient id="grad2_3" x1="0%" y1="100%" x2="66.7%" y2="0%"><stop offset="20%" stop-color="#2e294f" stop-opacity="1"></stop><stop offset="80%" stop-color="#3f2d59" stop-opacity="1"></stop></linearGradient></defs><defs><linearGradient id="grad2_4" x1="0%" y1="100%" x2="66.7%" y2="0%"><stop offset="20%" stop-color="#2e294f" stop-opacity="1"></stop><stop offset="80%" stop-color="#1e2545" stop-opacity="1"></stop></linearGradient></defs><defs><linearGradient id="grad2_5" x1="0%" y1="100%" x2="66.7%" y2="0%"><stop offset="20%" stop-color="#111f39" stop-opacity="1"></stop><stop offset="80%" stop-color="#1e2545" stop-opacity="1"></stop></linearGradient></defs><defs><linearGradient id="grad2_6" x1="0%" y1="100%" x2="66.7%" y2="0%"><stop offset="20%" stop-color="#111f39" stop-opacity="1"></stop><stop offset="80%" stop-color="#07192c" stop-opacity="1"></stop></linearGradient></defs><defs><linearGradient id="grad2_7" x1="0%" y1="100%" x2="66.7%" y2="0%"><stop offset="20%" stop-color="#001220" stop-opacity="1"></stop><stop offset="80%" stop-color="#07192c" stop-opacity="1"></stop></linearGradient></defs><g transform="translate(900, 600)"><path d="M-486.7 0C-454.5 -46.2 -422.3 -92.5 -389.9 -126.7C-357.6 -160.9 -325.1 -183.2 -309 -224.5C-292.9 -265.9 -293.2 -326.2 -269.8 -371.3C-246.4 -416.4 -199.3 -446.2 -150.4 -462.9C-101.5 -479.6 -50.8 -483.2 0 -486.7L0 0Z" fill="#041626"></path><path d="M-425.9 0C-397.7 -40.4 -369.5 -80.9 -341.2 -110.9C-312.9 -140.8 -284.5 -160.3 -270.4 -196.5C-256.3 -232.6 -256.5 -285.5 -236.1 -324.9C-215.6 -364.4 -174.4 -390.5 -131.6 -405.1C-88.8 -419.7 -44.4 -422.8 0 -425.9L0 0Z" fill="#0c1c33"></path><path d="M-365.1 0C-340.9 -34.7 -316.7 -69.3 -292.4 -95C-268.2 -120.7 -243.9 -137.4 -231.8 -168.4C-219.7 -199.4 -219.9 -244.7 -202.3 -278.5C-184.8 -312.3 -149.5 -334.7 -112.8 -347.2C-76.1 -359.7 -38.1 -362.4 0 -365.1L0 0Z" fill="#17223f"></path><path d="M-304.2 0C-284.1 -28.9 -263.9 -57.8 -243.7 -79.2C-223.5 -100.6 -203.2 -114.5 -193.2 -140.3C-183.1 -166.2 -183.2 -203.9 -168.6 -232.1C-154 -260.3 -124.6 -278.9 -94 -289.3C-63.4 -299.8 -31.7 -302 0 -304.2L0 0Z" fill="#26274a"></path><path d="M-243.4 0C-227.3 -23.1 -211.1 -46.2 -195 -63.3C-178.8 -80.5 -162.6 -91.6 -154.5 -112.3C-146.5 -132.9 -146.6 -163.1 -134.9 -185.7C-123.2 -208.2 -99.7 -223.1 -75.2 -231.5C-50.8 -239.8 -25.4 -241.6 0 -243.4L0 0Z" fill="#372c54"></path><path d="M-182.5 0C-170.4 -17.3 -158.4 -34.7 -146.2 -47.5C-134.1 -60.4 -121.9 -68.7 -115.9 -84.2C-109.9 -99.7 -109.9 -122.3 -101.2 -139.3C-92.4 -156.2 -74.7 -167.3 -56.4 -173.6C-38.1 -179.9 -19 -181.2 0 -182.5L0 0Z" fill="#492f5d"></path><path d="M-121.7 0C-113.6 -11.6 -105.6 -23.1 -97.5 -31.7C-89.4 -40.2 -81.3 -45.8 -77.3 -56.1C-73.2 -66.5 -73.3 -81.6 -67.4 -92.8C-61.6 -104.1 -49.8 -111.6 -37.6 -115.7C-25.4 -119.9 -12.7 -120.8 0 -121.7L0 0Z" fill="#5c3264"></path><path d="M-60.8 0C-56.8 -5.8 -52.8 -11.6 -48.7 -15.8C-44.7 -20.1 -40.6 -22.9 -38.6 -28.1C-36.6 -33.2 -36.6 -40.8 -33.7 -46.4C-30.8 -52.1 -24.9 -55.8 -18.8 -57.9C-12.7 -60 -6.3 -60.4 0 -60.8L0 0Z" fill="#663366"></path></g><g transform="translate(0, 0)"><path d="M486.7 0C461.1 44.9 435.5 89.8 420.4 136.6C405.2 183.4 400.6 232 381 276.8C361.5 321.7 327 362.8 286.1 393.8C245.2 424.7 198 445.6 149.3 459.4C100.5 473.2 50.3 480 0 486.7L0 0Z" fill="#041626"></path><path d="M425.9 0C403.5 39.3 381.1 78.6 367.8 119.5C354.6 160.4 350.5 203 333.4 242.2C316.3 281.5 286.1 317.5 250.3 344.6C214.6 371.7 173.2 389.9 130.6 401.9C87.9 414 44 420 0 425.9L0 0Z" fill="#0c1c33"></path><path d="M365.1 0C345.8 33.7 326.6 67.4 315.3 102.4C303.9 137.5 300.5 174 285.8 207.6C271.1 241.3 245.2 272.1 214.6 295.3C183.9 318.6 148.5 334.2 111.9 344.5C75.4 354.9 37.7 360 0 365.1L0 0Z" fill="#17223f"></path><path d="M304.2 0C288.2 28.1 272.2 56.1 262.7 85.4C253.3 114.6 250.4 145 238.2 173C225.9 201.1 204.4 226.8 178.8 246.1C153.3 265.5 123.7 278.5 93.3 287.1C62.8 295.7 31.4 300 0 304.2L0 0Z" fill="#26274a"></path><path d="M243.4 0C230.6 22.5 217.7 44.9 210.2 68.3C202.6 91.7 200.3 116 190.5 138.4C180.7 160.9 163.5 181.4 143.1 196.9C122.6 212.4 99 222.8 74.6 229.7C50.3 236.6 25.1 240 0 243.4L0 0Z" fill="#372c54"></path><path d="M182.5 0C172.9 16.8 163.3 33.7 157.6 51.2C152 68.8 150.2 87 142.9 103.8C135.6 120.6 122.6 136.1 107.3 147.7C92 159.3 74.2 167.1 56 172.3C37.7 177.4 18.8 180 0 182.5L0 0Z" fill="#492f5d"></path><path d="M121.7 0C115.3 11.2 108.9 22.5 105.1 34.1C101.3 45.8 100.2 58 95.3 69.2C90.4 80.4 81.7 90.7 71.5 98.4C61.3 106.2 49.5 111.4 37.3 114.8C25.1 118.3 12.6 120 0 121.7L0 0Z" fill="#5c3264"></path><path d="M60.8 0C57.6 5.6 54.4 11.2 52.5 17.1C50.7 22.9 50.1 29 47.6 34.6C45.2 40.2 40.9 45.4 35.8 49.2C30.7 53.1 24.7 55.7 18.7 57.4C12.6 59.1 6.3 60 0 60.8L0 0Z" fill="#663366"></path></g></svg>