<svg id="visual" viewBox="0 0 600 900" width="600" height="900" xmlns="http://www.w3.org/2000/svg" xmlns:xlink="http://www.w3.org/1999/xlink" version="1.1"><rect x="0" y="0" width="600" height="900" fill="#001220"></rect><defs><linearGradient id="grad1_0" x1="0%" y1="100%" x2="100%" y2="0%"><stop offset="30%" stop-color="#663366" stop-opacity="1"></stop><stop offset="70%" stop-color="#663366" stop-opacity="1"></stop></linearGradient></defs><defs><linearGradient id="grad1_1" x1="0%" y1="100%" x2="100%" y2="0%"><stop offset="30%" stop-color="#663366" stop-opacity="1"></stop><stop offset="70%" stop-color="#523160" stop-opacity="1"></stop></linearGradient></defs><defs><linearGradient id="grad1_2" x1="0%" y1="100%" x2="100%" y2="0%"><stop offset="30%" stop-color="#3f2d59" stop-opacity="1"></stop><stop offset="70%" stop-color="#523160" stop-opacity="1"></stop></linearGradient></defs><defs><linearGradient id="grad1_3" x1="0%" y1="100%" x2="100%" y2="0%"><stop offset="30%" stop-color="#3f2d59" stop-opacity="1"></stop><stop offset="70%" stop-color="#2e294f" stop-opacity="1"></stop></linearGradient></defs><defs><linearGradient id="grad1_4" x1="0%" y1="100%" x2="100%" y2="0%"><stop offset="30%" stop-color="#1e2545" stop-opacity="1"></stop><stop offset="70%" stop-color="#2e294f" stop-opacity="1"></stop></linearGradient></defs><defs><linearGradient id="grad1_5" x1="0%" y1="100%" x2="100%" y2="0%"><stop offset="30%" stop-color="#1e2545" stop-opacity="1"></stop><stop offset="70%" stop-color="#111f39" stop-opacity="1"></stop></linearGradient></defs><defs><linearGradient id="grad1_6" x1="0%" y1="100%" x2="100%" y2="0%"><stop offset="30%" stop-color="#07192c" stop-opacity="1"></stop><stop offset="70%" stop-color="#111f39" stop-opacity="1"></stop></linearGradient></defs><defs><linearGradient id="grad1_7" x1="0%" y1="100%" x2="100%" y2="0%"><stop offset="30%" stop-color="#07192c" stop-opacity="1"></stop><stop offset="70%" stop-color="#001220" stop-opacity="1"></stop></linearGradient></defs><defs><linearGradient id="grad2_0" x1="0%" y1="100%" x2="100%" y2="0%"><stop offset="30%" stop-color="#663366" stop-opacity="1"></stop><stop offset="70%" stop-color="#663366" stop-opacity="1"></stop></linearGradient></defs><defs><linearGradient id="grad2_1" x1="0%" y1="100%" x2="100%" y2="0%"><stop offset="30%" stop-color="#523160" stop-opacity="1"></stop><stop offset="70%" stop-color="#663366" stop-opacity="1"></stop></linearGradient></defs><defs><linearGradient id="grad2_2" x1="0%" y1="100%" x2="100%" y2="0%"><stop offset="30%" stop-color="#523160" stop-opacity="1"></stop><stop offset="70%" stop-color="#3f2d59" stop-opacity="1"></stop></linearGradient></defs><defs><linearGradient id="grad2_3" x1="0%" y1="100%" x2="100%" y2="0%"><stop offset="30%" stop-color="#2e294f" stop-opacity="1"></stop><stop offset="70%" stop-color="#3f2d59" stop-opacity="1"></stop></linearGradient></defs><defs><linearGradient id="grad2_4" x1="0%" y1="100%" x2="100%" y2="0%"><stop offset="30%" stop-color="#2e294f" stop-opacity="1"></stop><stop offset="70%" stop-color="#1e2545" stop-opacity="1"></stop></linearGradient></defs><defs><linearGradient id="grad2_5" x1="0%" y1="100%" x2="100%" y2="0%"><stop offset="30%" stop-color="#111f39" stop-opacity="1"></stop><stop offset="70%" stop-color="#1e2545" stop-opacity="1"></stop></linearGradient></defs><defs><linearGradient id="grad2_6" x1="0%" y1="100%" x2="100%" y2="0%"><stop offset="30%" stop-color="#111f39" stop-opacity="1"></stop><stop offset="70%" stop-color="#07192c" stop-opacity="1"></stop></linearGradient></defs><defs><linearGradient id="grad2_7" x1="0%" y1="100%" x2="100%" y2="0%"><stop offset="30%" stop-color="#001220" stop-opacity="1"></stop><stop offset="70%" stop-color="#07192c" stop-opacity="1"></stop></linearGradient></defs><g transform="translate(600, 900)"><path d="M-486.7 0C-427.6 -33.2 -368.4 -66.4 -361.4 -117.4C-354.4 -168.4 -399.5 -237.1 -393.8 -286.1C-388 -335.1 -331.4 -364.2 -282.1 -388.3C-232.9 -412.4 -191 -431.4 -145.2 -447C-99.4 -462.6 -49.7 -474.7 0 -486.7L0 0Z" fill="#041626"></path><path d="M-425.9 0C-374.1 -29.1 -322.4 -58.1 -316.2 -102.7C-310.1 -147.4 -349.6 -207.5 -344.6 -250.3C-339.5 -293.2 -290 -318.7 -246.9 -339.8C-203.8 -360.9 -167.1 -377.5 -127.1 -391.1C-87 -404.7 -43.5 -415.3 0 -425.9L0 0Z" fill="#0c1c33"></path><path d="M-365.1 0C-320.7 -24.9 -276.3 -49.8 -271.1 -88.1C-265.8 -126.3 -299.7 -177.9 -295.3 -214.6C-291 -251.3 -248.5 -273.2 -211.6 -291.2C-174.7 -309.3 -143.3 -323.6 -108.9 -335.2C-74.6 -346.9 -37.3 -356 0 -365.1L0 0Z" fill="#17223f"></path><path d="M-304.2 0C-267.2 -20.8 -230.3 -41.5 -225.9 -73.4C-221.5 -105.3 -249.7 -148.2 -246.1 -178.8C-242.5 -209.4 -207.1 -227.6 -176.3 -242.7C-145.6 -257.8 -119.4 -269.6 -90.8 -279.4C-62.2 -289.1 -31.1 -296.7 0 -304.2L0 0Z" fill="#26274a"></path><path d="M-243.4 0C-213.8 -16.6 -184.2 -33.2 -180.7 -58.7C-177.2 -84.2 -199.8 -118.6 -196.9 -143.1C-194 -167.5 -165.7 -182.1 -141.1 -194.2C-116.4 -206.2 -95.5 -215.7 -72.6 -223.5C-49.7 -231.3 -24.9 -237.3 0 -243.4L0 0Z" fill="#372c54"></path><path d="M-182.5 0C-160.3 -12.5 -138.2 -24.9 -135.5 -44C-132.9 -63.2 -149.8 -88.9 -147.7 -107.3C-145.5 -125.6 -124.3 -136.6 -105.8 -145.6C-87.3 -154.7 -71.6 -161.8 -54.5 -167.6C-37.3 -173.5 -18.6 -178 0 -182.5L0 0Z" fill="#492f5d"></path><path d="M-121.7 0C-106.9 -8.3 -92.1 -16.6 -90.4 -29.4C-88.6 -42.1 -99.9 -59.3 -98.4 -71.5C-97 -83.8 -82.8 -91.1 -70.5 -97.1C-58.2 -103.1 -47.8 -107.9 -36.3 -111.7C-24.9 -115.6 -12.4 -118.7 0 -121.7L0 0Z" fill="#5c3264"></path><path d="M-60.8 0C-53.4 -4.2 -46.1 -8.3 -45.2 -14.7C-44.3 -21.1 -49.9 -29.6 -49.2 -35.8C-48.5 -41.9 -41.4 -45.5 -35.3 -48.5C-29.1 -51.6 -23.9 -53.9 -18.2 -55.9C-12.4 -57.8 -6.2 -59.3 0 -60.8L0 0Z" fill="#663366"></path></g><g transform="translate(0, 0)"><path d="M486.7 0C439.1 36.5 391.4 73 384.2 124.8C377 176.7 410.3 243.8 393.8 286.1C377.3 328.4 311.2 346 258.6 356C206.1 366 167.2 368.4 126.4 389C85.6 409.5 42.8 448.1 0 486.7L0 0Z" fill="#041626"></path><path d="M425.9 0C384.2 31.9 342.5 63.9 336.2 109.2C329.9 154.6 359 213.3 344.6 250.3C330.2 287.4 272.3 302.7 226.3 311.5C180.3 320.2 146.3 322.4 110.6 340.4C74.9 358.3 37.4 392.1 0 425.9L0 0Z" fill="#0c1c33"></path><path d="M365.1 0C329.3 27.4 293.6 54.8 288.2 93.6C282.8 132.5 307.7 182.8 295.3 214.6C283 246.3 233.4 259.5 194 267C154.6 274.5 125.4 276.3 94.8 291.7C64.2 307.1 32.1 336.1 0 365.1L0 0Z" fill="#17223f"></path><path d="M304.2 0C274.4 22.8 244.6 45.6 240.1 78C235.6 110.4 256.4 152.4 246.1 178.8C235.8 205.3 194.5 216.2 161.6 222.5C128.8 228.7 104.5 230.3 79 243.1C53.5 256 26.7 280.1 0 304.2L0 0Z" fill="#26274a"></path><path d="M243.4 0C219.5 18.3 195.7 36.5 192.1 62.4C188.5 88.3 205.1 121.9 196.9 143.1C188.7 164.2 155.6 173 129.3 178C103 183 83.6 184.2 63.2 194.5C42.8 204.8 21.4 224.1 0 243.4L0 0Z" fill="#372c54"></path><path d="M182.5 0C164.7 13.7 146.8 27.4 144.1 46.8C141.4 66.2 153.8 91.4 147.7 107.3C141.5 123.2 116.7 129.7 97 133.5C77.3 137.2 62.7 138.2 47.4 145.9C32.1 153.6 16 168.1 0 182.5L0 0Z" fill="#492f5d"></path><path d="M121.7 0C109.8 9.1 97.9 18.3 96.1 31.2C94.3 44.2 102.6 60.9 98.4 71.5C94.3 82.1 77.8 86.5 64.7 89C51.5 91.5 41.8 92.1 31.6 97.2C21.4 102.4 10.7 112 0 121.7L0 0Z" fill="#5c3264"></path><path d="M60.8 0C54.9 4.6 48.9 9.1 48 15.6C47.1 22.1 51.3 30.5 49.2 35.8C47.2 41.1 38.9 43.2 32.3 44.5C25.8 45.7 20.9 46.1 15.8 48.6C10.7 51.2 5.3 56 0 60.8L0 0Z" fill="#663366"></path></g></svg>