<?xml version="1.0" standalone="no"?>
<!DOCTYPE svg PUBLIC "-//W3C//DTD SVG 20010904//EN"
 "http://www.w3.org/TR/2001/REC-SVG-20010904/DTD/svg10.dtd">
<svg version="1.0" xmlns="http://www.w3.org/2000/svg"
 width="500.000000pt" height="500.000000pt" viewBox="0 0 500.000000 500.000000"
 preserveAspectRatio="xMidYMid meet">

<g transform="translate(0.000000,500.000000) scale(0.100000,-0.100000)"
fill="#000000" stroke="none">
<path d="M2285 4633 c-246 -29 -440 -80 -645 -171 -629 -277 -1085 -833 -1234
-1507 -33 -148 -46 -275 -46 -455 0 -251 30 -441 105 -674 131 -403 410 -790
750 -1041 274 -203 551 -324 900 -396 129 -26 483 -37 631 -20 981 116 1762
891 1884 1871 13 108 13 398 0 515 -76 663 -481 1271 -1070 1607 -252 143
-538 238 -812 267 -90 10 -393 13 -463 4z m504 -188 c553 -81 1047 -397 1359
-873 264 -403 370 -895 296 -1377 -130 -838 -801 -1509 -1639 -1639 -547 -84
-1102 63 -1535 409 -85 68 -237 220 -305 306 -171 213 -309 492 -374 754 -73
293 -73 659 -1 946 162 638 634 1161 1244 1377 180 64 334 97 536 116 79 7
309 -3 419 -19z"/>
<path d="M2170 3395 l0 -375 -184 0 c-119 0 -213 -5 -267 -15 -234 -42 -409
-136 -565 -305 -165 -179 -247 -425 -223 -664 43 -424 418 -770 869 -803 l85
-6 32 89 c18 49 70 188 116 309 l84 220 -166 6 c-178 6 -200 11 -277 67 -131
95 -128 319 5 418 74 54 121 64 318 64 l173 0 2 -201 3 -202 37 99 c20 54 67
178 103 274 74 192 156 410 305 805 54 143 125 333 159 422 34 89 61 164 61
167 0 3 -151 6 -335 6 l-335 0 0 -375z"/>
<path d="M3083 3684 c-18 -49 -70 -188 -116 -309 l-84 -220 166 -6 c178 -6
200 -11 277 -67 131 -95 128 -319 -5 -418 -74 -54 -121 -64 -318 -64 l-173 0
-2 201 -3 202 -37 -99 c-20 -54 -67 -178 -103 -274 -74 -192 -156 -410 -305
-805 -54 -143 -125 -333 -159 -422 -34 -89 -61 -164 -61 -167 0 -3 151 -6 335
-6 l335 0 0 375 0 375 184 0 c255 0 394 27 551 106 406 206 598 642 466 1056
-109 339 -452 597 -831 625 l-85 6 -32 -89z"/>
</g>
</svg>
