<?xml version="1.0" encoding="utf-8"?><svg xmlns="http://www.w3.org/2000/svg" xmlns:xlink="http://www.w3.org/1999/xlink" width="3000" height="2000" preserveAspectRatio="xMidYMid" viewBox="0 0 3000 2000" style="z-index:1;margin-right:-2px;display:block;background-repeat-y:initial;background-repeat-x:initial;background-color:rgba(255, 255, 255, 0);animation-play-state:paused" ><g transform="translate(1500,1000) scale(1,-1) translate(-1500,-1000)" style="transform:matrix(1, 0, 0, -1, 0, 2000);animation-play-state:paused" ><linearGradient id="lg-0.13669364544040663" x1="0" x2="1" y1="0" y2="0" style="animation-play-state:paused" ><stop stop-color="#ff00ff" offset="0" style="animation-play-state:paused" ></stop>

  
<stop stop-color="#00ffff" offset="1" style="animation-play-state:paused" ></stop></linearGradient>
<path d="M 0 0 L 0 1735.6 Q 300 1798.98 600 1784.21 T 1200 1471.47 T 1800 1468.46 T 2400 1231.65 T 3000 797.901 L 3000 0 Z" fill="url(#lg-0.13669364544040663)" opacity="0.4" style="opacity:0.4;animation-play-state:paused" ></path>
<path d="M 0 0 L 0 1798.27 Q 300 1706.97 600 1680.97 T 1200 1395.55 T 1800 1286.34 T 2400 997.718 T 3000 994.391 L 3000 0 Z" fill="url(#lg-0.13669364544040663)" opacity="0.4" style="opacity:0.4;animation-play-state:paused" ></path>
<path d="M 0 0 L 0 1800.34 Q 300 1780.45 600 1739.83 T 1200 1594.36 T 1800 1352.35 T 2400 872.69 T 3000 732.848 L 3000 0 Z" fill="url(#lg-0.13669364544040663)" opacity="0.4" style="opacity:0.4;animation-play-state:paused" ></path>
<path d="M 0 0 L 0 1774.17 Q 300 1486.42 600 1466.42 T 1200 1251.22 T 1800 1301.84 T 2400 1049.09 T 3000 897.743 L 3000 0 Z" fill="url(#lg-0.13669364544040663)" opacity="0.4" style="opacity:0.4;animation-play-state:paused" ></path>
<path d="M 0 0 L 0 1943.3 Q 300 1589.69 600 1565.38 T 1200 1327.87 T 1800 1088.21 T 2400 931.367 T 3000 898.216 L 3000 0 Z" fill="url(#lg-0.13669364544040663)" opacity="0.4" style="opacity:0.4;animation-play-state:paused" ></path></g></svg>