<svg id="visual" viewBox="0 0 450 1300" width="450" height="1300" xmlns="http://www.w3.org/2000/svg" xmlns:xlink="http://www.w3.org/1999/xlink" version="1.1"><rect x="0" y="0" width="450" height="1300" fill="#001220"></rect><defs><linearGradient id="grad1_0" x1="0%" y1="100%" x2="100%" y2="0%"><stop offset="30%" stop-color="#663366" stop-opacity="1"></stop><stop offset="70%" stop-color="#663366" stop-opacity="1"></stop></linearGradient></defs><defs><linearGradient id="grad1_1" x1="0%" y1="100%" x2="100%" y2="0%"><stop offset="30%" stop-color="#663366" stop-opacity="1"></stop><stop offset="70%" stop-color="#523160" stop-opacity="1"></stop></linearGradient></defs><defs><linearGradient id="grad1_2" x1="0%" y1="100%" x2="100%" y2="0%"><stop offset="30%" stop-color="#3f2d59" stop-opacity="1"></stop><stop offset="70%" stop-color="#523160" stop-opacity="1"></stop></linearGradient></defs><defs><linearGradient id="grad1_3" x1="0%" y1="100%" x2="100%" y2="0%"><stop offset="30%" stop-color="#3f2d59" stop-opacity="1"></stop><stop offset="70%" stop-color="#2e294f" stop-opacity="1"></stop></linearGradient></defs><defs><linearGradient id="grad1_4" x1="0%" y1="100%" x2="100%" y2="0%"><stop offset="30%" stop-color="#1e2545" stop-opacity="1"></stop><stop offset="70%" stop-color="#2e294f" stop-opacity="1"></stop></linearGradient></defs><defs><linearGradient id="grad1_5" x1="0%" y1="100%" x2="100%" y2="0%"><stop offset="30%" stop-color="#1e2545" stop-opacity="1"></stop><stop offset="70%" stop-color="#111f39" stop-opacity="1"></stop></linearGradient></defs><defs><linearGradient id="grad1_6" x1="0%" y1="100%" x2="100%" y2="0%"><stop offset="30%" stop-color="#07192c" stop-opacity="1"></stop><stop offset="70%" stop-color="#111f39" stop-opacity="1"></stop></linearGradient></defs><defs><linearGradient id="grad1_7" x1="0%" y1="100%" x2="100%" y2="0%"><stop offset="30%" stop-color="#07192c" stop-opacity="1"></stop><stop offset="70%" stop-color="#001220" stop-opacity="1"></stop></linearGradient></defs><defs><linearGradient id="grad2_0" x1="0%" y1="100%" x2="100%" y2="0%"><stop offset="30%" stop-color="#663366" stop-opacity="1"></stop><stop offset="70%" stop-color="#663366" stop-opacity="1"></stop></linearGradient></defs><defs><linearGradient id="grad2_1" x1="0%" y1="100%" x2="100%" y2="0%"><stop offset="30%" stop-color="#523160" stop-opacity="1"></stop><stop offset="70%" stop-color="#663366" stop-opacity="1"></stop></linearGradient></defs><defs><linearGradient id="grad2_2" x1="0%" y1="100%" x2="100%" y2="0%"><stop offset="30%" stop-color="#523160" stop-opacity="1"></stop><stop offset="70%" stop-color="#3f2d59" stop-opacity="1"></stop></linearGradient></defs><defs><linearGradient id="grad2_3" x1="0%" y1="100%" x2="100%" y2="0%"><stop offset="30%" stop-color="#2e294f" stop-opacity="1"></stop><stop offset="70%" stop-color="#3f2d59" stop-opacity="1"></stop></linearGradient></defs><defs><linearGradient id="grad2_4" x1="0%" y1="100%" x2="100%" y2="0%"><stop offset="30%" stop-color="#2e294f" stop-opacity="1"></stop><stop offset="70%" stop-color="#1e2545" stop-opacity="1"></stop></linearGradient></defs><defs><linearGradient id="grad2_5" x1="0%" y1="100%" x2="100%" y2="0%"><stop offset="30%" stop-color="#111f39" stop-opacity="1"></stop><stop offset="70%" stop-color="#1e2545" stop-opacity="1"></stop></linearGradient></defs><defs><linearGradient id="grad2_6" x1="0%" y1="100%" x2="100%" y2="0%"><stop offset="30%" stop-color="#111f39" stop-opacity="1"></stop><stop offset="70%" stop-color="#07192c" stop-opacity="1"></stop></linearGradient></defs><defs><linearGradient id="grad2_7" x1="0%" y1="100%" x2="100%" y2="0%"><stop offset="30%" stop-color="#001220" stop-opacity="1"></stop><stop offset="70%" stop-color="#07192c" stop-opacity="1"></stop></linearGradient></defs><g transform="translate(450, 1300)"><path d="M-405 0C-352.3 -31.4 -299.5 -62.8 -269.1 -87.5C-238.8 -112.1 -230.8 -130.1 -229.8 -166.9C-228.7 -203.7 -234.5 -259.3 -218.7 -301C-202.8 -342.6 -165.2 -370.2 -125.2 -385.2C-85.1 -400.2 -42.5 -402.6 0 -405L0 0Z" fill="#041626"></path><path d="M-354.4 0C-308.2 -27.5 -262.1 -54.9 -235.5 -76.5C-208.9 -98.1 -202 -113.9 -201 -146.1C-200.1 -178.3 -205.2 -226.9 -191.3 -263.3C-177.4 -299.7 -144.6 -323.9 -109.5 -337C-74.5 -350.2 -37.2 -352.3 0 -354.4L0 0Z" fill="#0c1c33"></path><path d="M-303.7 0C-264.2 -23.5 -224.6 -47.1 -201.9 -65.6C-179.1 -84.1 -173.1 -97.6 -172.3 -125.2C-171.5 -152.8 -175.9 -194.5 -164 -225.7C-152.1 -256.9 -123.9 -277.6 -93.9 -288.9C-63.8 -300.1 -31.9 -301.9 0 -303.7L0 0Z" fill="#17223f"></path><path d="M-253.1 0C-220.2 -19.6 -187.2 -39.2 -168.2 -54.7C-149.2 -70.1 -144.3 -81.3 -143.6 -104.3C-142.9 -127.3 -146.6 -162.1 -136.7 -188.1C-126.7 -214.1 -103.3 -231.4 -78.2 -240.7C-53.2 -250.1 -26.6 -251.6 0 -253.1L0 0Z" fill="#26274a"></path><path d="M-202.5 0C-176.1 -15.7 -149.8 -31.4 -134.6 -43.7C-119.4 -56.1 -115.4 -65.1 -114.9 -83.5C-114.3 -101.9 -117.3 -129.7 -109.3 -150.5C-101.4 -171.3 -82.6 -185.1 -62.6 -192.6C-42.5 -200.1 -21.3 -201.3 0 -202.5L0 0Z" fill="#372c54"></path><path d="M-151.9 0C-132.1 -11.8 -112.3 -23.5 -100.9 -32.8C-89.5 -42.1 -86.6 -48.8 -86.2 -62.6C-85.8 -76.4 -87.9 -97.3 -82 -112.9C-76 -128.5 -62 -138.8 -46.9 -144.4C-31.9 -150.1 -16 -151 0 -151.9L0 0Z" fill="#492f5d"></path><path d="M-101.2 0C-88.1 -7.8 -74.9 -15.7 -67.3 -21.9C-59.7 -28 -57.7 -32.5 -57.4 -41.7C-57.2 -50.9 -58.6 -64.8 -54.7 -75.2C-50.7 -85.6 -41.3 -92.5 -31.3 -96.3C-21.3 -100 -10.6 -100.6 0 -101.2L0 0Z" fill="#5c3264"></path><path d="M-50.6 0C-44 -3.9 -37.4 -7.8 -33.6 -10.9C-29.8 -14 -28.9 -16.3 -28.7 -20.9C-28.6 -25.5 -29.3 -32.4 -27.3 -37.6C-25.3 -42.8 -20.7 -46.3 -15.6 -48.1C-10.6 -50 -5.3 -50.3 0 -50.6L0 0Z" fill="#663366"></path></g><g transform="translate(0, 0)"><path d="M405 0C384.3 36.4 363.5 72.8 354.7 115.3C345.9 157.7 349.1 206.3 327.7 238.1C306.2 269.8 260.2 284.6 223.4 307.4C186.5 330.2 158.7 360.9 123 378.5C87.3 396.1 43.6 400.6 0 405L0 0Z" fill="#041626"></path><path d="M354.4 0C336.2 31.8 318.1 63.7 310.4 100.9C302.7 138 305.4 180.5 286.7 208.3C267.9 236.1 227.7 249.1 195.4 269C163.2 288.9 138.9 315.8 107.6 331.2C76.4 346.6 38.2 350.5 0 354.4L0 0Z" fill="#0c1c33"></path><path d="M303.8 0C288.2 27.3 272.7 54.6 266.1 86.4C259.5 118.3 261.8 154.7 245.7 178.5C229.7 202.3 195.2 213.5 167.5 230.6C139.9 247.7 119 270.7 92.2 283.9C65.5 297.1 32.7 300.4 0 303.8L0 0Z" fill="#17223f"></path><path d="M253.1 0C240.2 22.7 227.2 45.5 221.7 72C216.2 98.6 218.2 129 204.8 148.8C191.4 168.6 162.7 177.9 139.6 192.1C116.5 206.4 99.2 225.6 76.9 236.6C54.5 247.6 27.3 250.3 0 253.1L0 0Z" fill="#26274a"></path><path d="M202.5 0C192.1 18.2 181.8 36.4 177.4 57.6C173 78.9 174.5 103.2 163.8 119C153.1 134.9 130.1 142.3 111.7 153.7C93.2 165.1 79.3 180.5 61.5 189.3C43.6 198.1 21.8 200.3 0 202.5L0 0Z" fill="#372c54"></path><path d="M151.9 0C144.1 13.6 136.3 27.3 133 43.2C129.7 59.2 130.9 77.4 122.9 89.3C114.8 101.2 97.6 106.7 83.8 115.3C69.9 123.8 59.5 135.4 46.1 141.9C32.7 148.5 16.4 150.2 0 151.9L0 0Z" fill="#492f5d"></path><path d="M101.3 0C96.1 9.1 90.9 18.2 88.7 28.8C86.5 39.4 87.3 51.6 81.9 59.5C76.6 67.4 65.1 71.2 55.8 76.9C46.6 82.6 39.7 90.2 30.7 94.6C21.8 99 10.9 100.1 0 101.3L0 0Z" fill="#5c3264"></path><path d="M50.6 0C48 4.5 45.4 9.1 44.3 14.4C43.2 19.7 43.6 25.8 41 29.8C38.3 33.7 32.5 35.6 27.9 38.4C23.3 41.3 19.8 45.1 15.4 47.3C10.9 49.5 5.5 50.1 0 50.6L0 0Z" fill="#663366"></path></g></svg>