<svg id="svg" version="1.1" xmlns="http://www.w3.org/2000/svg" xmlns:xlink="http://www.w3.org/1999/xlink" width="400" height="400" viewBox="0, 0, 400,400"><g id="svgg"><path id="path0" d="M303.643 118.793 C 303.489 119.038,292.894 137.367,280.099 159.523 L 256.835 199.808 280.412 240.627 C 293.380 263.077,304.062 281.445,304.152 281.445 C 304.559 281.445,309.440 278.400,310.874 277.251 C 316.255 272.941,320.568 265.685,322.197 258.203 C 322.544 256.609,322.559 254.296,322.559 200.000 L 322.559 143.457 322.118 141.467 C 319.835 131.160,314.291 124.084,304.061 118.423 C 303.985 118.381,303.797 118.547,303.643 118.793 M93.049 120.076 C 85.228 124.726,79.802 132.319,77.806 141.407 C 77.319 143.624,77.227 255.650,77.710 258.105 C 79.130 265.323,83.826 273.158,89.352 277.531 C 91.284 279.060,95.940 281.687,96.203 281.396 C 96.323 281.262,106.939 262.936,119.793 240.672 L 143.163 200.193 119.586 159.374 C 106.619 136.923,95.918 118.555,95.807 118.555 C 95.696 118.556,94.455 119.240,93.049 120.076 M148.505 135.727 C 146.247 136.100,144.621 138.517,145.124 140.755 C 145.234 141.241,152.195 153.509,162.517 171.405 C 171.983 187.816,179.768 201.350,179.818 201.480 C 179.868 201.609,172.114 215.222,162.587 231.729 C 153.060 248.237,145.177 262.088,145.071 262.508 C 144.648 264.173,145.431 266.072,146.983 267.143 L 147.754 267.676 199.512 267.733 C 236.774 267.774,251.478 267.730,252.014 267.575 C 253.806 267.057,254.997 265.188,254.848 263.125 C 254.767 262.015,254.228 261.048,237.429 231.924 C 222.628 206.265,220.121 201.808,220.283 201.452 C 220.387 201.223,228.026 187.949,237.258 171.953 C 246.490 155.958,254.251 142.475,254.503 141.992 C 255.626 139.844,254.803 137.231,252.637 136.065 L 251.855 135.645 200.586 135.619 C 172.388 135.605,148.951 135.654,148.505 135.727 " stroke="none" fill="#fb9363" fill-rule="evenodd"></path><path id="path1" d="M0.000 200.000 L 0.000 400.000 200.000 400.000 L 400.000 400.000 400.000 200.000 L 400.000 0.000 200.000 0.000 L 0.000 0.000 0.000 200.000 M306.543 119.874 C 314.651 124.627,320.044 132.104,322.118 141.467 L 322.559 143.457 322.559 200.000 C 322.559 254.296,322.544 256.609,322.197 258.203 C 320.568 265.685,316.255 272.941,310.874 277.251 C 309.440 278.400,304.559 281.445,304.152 281.445 C 304.062 281.445,293.380 263.077,280.412 240.627 L 256.835 199.808 280.099 159.523 C 305.918 114.814,303.874 118.319,304.061 118.423 C 304.137 118.465,305.254 119.118,306.543 119.874 M119.586 159.374 L 143.163 200.193 119.793 240.672 C 106.939 262.936,96.323 281.262,96.203 281.396 C 95.940 281.687,91.284 279.060,89.352 277.531 C 83.826 273.158,79.130 265.323,77.710 258.105 C 77.227 255.650,77.319 143.624,77.806 141.407 C 79.383 134.227,83.841 126.889,89.233 122.598 C 90.503 121.588,95.432 118.556,95.807 118.555 C 95.918 118.555,106.619 136.923,119.586 159.374 M252.637 136.065 C 254.803 137.231,255.626 139.844,254.503 141.992 C 254.251 142.475,246.490 155.958,237.258 171.953 C 228.026 187.949,220.387 201.223,220.283 201.452 C 220.121 201.808,222.628 206.265,237.429 231.924 C 254.228 261.048,254.767 262.015,254.848 263.125 C 254.997 265.188,253.806 267.057,252.014 267.575 C 251.478 267.730,236.774 267.774,199.512 267.733 L 147.754 267.676 146.983 267.143 C 145.431 266.072,144.648 264.173,145.071 262.508 C 145.177 262.088,153.060 248.237,162.587 231.729 C 172.114 215.222,179.868 201.609,179.818 201.480 C 179.768 201.350,171.983 187.816,162.517 171.405 C 152.195 153.509,145.234 141.241,145.124 140.755 C 144.621 138.517,146.247 136.100,148.505 135.727 C 148.951 135.654,172.388 135.605,200.586 135.619 L 251.855 135.645 252.637 136.065 " stroke="none" fill="#040404" fill-rule="evenodd"></path></g></svg>